<svg id="Layer_1" data-name="Layer 1" xmlns="http://www.w3.org/2000/svg" viewBox="0 0 244.43 42.56"><defs><style>.cls-1{fill:#fff;}</style></defs><title>pattern</title><path class="cls-1" d="M184.44,42.3c-15.43-8.65-31.1-17.44-62.29-17.44s-47,8.87-62.29,17.44l-.47.26H69.57c13-7,27.4-12.77,52.56-12.77s39.47,5.79,52.56,12.77h10.22Z"/><path class="cls-1" d="M244.42,37.76h-.08c-29.9,0-44.47-8.17-59.9-16.82S153.34,3.5,122.15,3.5s-47,8.87-62.29,17.44S29.88,37.77,0,37.79v4.77H5.76c27.42-1,42.2-9.31,56.51-17.33,15.29-8.57,30-16.82,59.9-16.82s44.47,8.17,59.89,16.82c14.43,8.1,29.1,16.31,56.49,17.33h5.88Z"/><path class="cls-1" d="M0,16.39v4.92c31.17,0,47-8.87,62.26-17.44,2.32-1.3,4.63-2.6,7-3.86H59.09C44.07,8.41,29.36,16.38,0,16.39Z"/><path class="cls-1" d="M244.34,16.39c-29.25,0-43.83-7.82-58.89-16.25H175.29c2.27,1.22,4.51,2.48,6.77,3.74,15.42,8.65,31.1,17.44,62.29,17.44h0V16.39Z"/></svg>